name Walk_125 04
datacolumns 19
datarows 32
range 3.400000 3.432292
endheader
time	ground_force_vx	ground_force_vy	ground_force_vz	ground_force_px	ground_force_py	ground_force_pz	ground_force_vx	ground_force_vy	ground_force_vz	ground_force_px	ground_force_py	ground_force_pz	ground_torque_x	ground_torque_y	ground_torque_z	ground_torque_x	ground_torque_y	ground_torque_z
3.400000	-50.485310	624.325358	-26.690016	0.977817	0.000000	-0.416051	-0.000000	0.000000	0.000000	0.000000	0.000000	-0.000000	0.000000	0.649023	0.000000	0.000000	0.000000	0.000000	
3.401042	-50.127604	622.878304	-27.095000	0.977011	0.000000	-0.415997	-0.000000	0.000000	0.000000	0.000000	0.000000	-0.000000	0.000000	0.651685	0.000000	0.000000	0.000000	0.000000	
3.402083	-49.766767	621.449151	-27.511817	0.976206	0.000000	-0.415946	-0.000000	-0.000000	0.000000	0.000000	0.000000	-0.000000	0.000000	0.652352	0.000000	0.000000	0.000000	0.000000	
3.403125	-49.400964	620.042776	-27.934126	0.975400	0.000000	-0.415894	-0.000000	-0.000000	-0.000000	-0.000000	-0.000000	0.000000	0.000000	0.651106	0.000000	0.000000	0.000000	0.000000	
3.404167	-49.028513	618.664136	-28.355644	0.974591	0.000000	-0.415842	-0.000000	-0.000000	-0.000000	-0.000000	-0.000000	0.000000	0.000000	0.648048	0.000000	0.000000	0.000000	0.000000	
3.405208	-48.647923	617.318178	-28.770272	0.973777	0.000000	-0.415789	0.000000	-0.000000	-0.000000	-0.000000	-0.000000	0.000000	0.000000	0.643299	0.000000	0.000000	0.000000	0.000000	
3.406250	-48.257927	616.009747	-29.172214	0.972956	0.000000	-0.415732	0.000000	-0.000000	-0.000000	-0.000000	-0.000000	0.000000	0.000000	0.636993	0.000000	0.000000	0.000000	0.000000	
3.407292	-47.857512	614.743500	-29.556085	0.972125	0.000000	-0.415671	0.000000	-0.000000	-0.000000	-0.000000	-0.000000	0.000000	0.000000	0.629279	0.000000	0.000000	0.000000	0.000000	
3.408333	-47.445941	613.523823	-29.917003	0.971283	0.000000	-0.415606	0.000000	-0.000000	-0.000000	-0.000000	-0.000000	0.000000	0.000000	0.620317	0.000000	0.000000	0.000000	0.000000	
3.409375	-47.022770	612.354745	-30.250675	0.970429	0.000000	-0.415535	0.000000	-0.000000	-0.000000	-0.000000	-0.000000	0.000000	0.000000	0.610277	0.000000	0.000000	0.000000	0.000000	
3.410417	-46.587859	611.239876	-30.553459	0.969561	0.000000	-0.415459	0.000000	-0.000000	-0.000000	-0.000000	-0.000000	0.000000	0.000000	0.599335	0.000000	0.000000	0.000000	0.000000	
3.411458	-46.141370	610.182335	-30.822415	0.968677	0.000000	-0.415376	0.000000	-0.000000	-0.000000	-0.000000	-0.000000	0.000000	0.000000	0.587673	0.000000	0.000000	0.000000	0.000000	
3.412500	-45.683769	609.184711	-31.055334	0.967777	0.000000	-0.415288	0.000000	-0.000000	-0.000000	-0.000000	-0.000000	0.000000	0.000000	0.575474	0.000000	0.000000	0.000000	0.000000	
3.413542	-45.215802	608.249014	-31.250754	0.966861	0.000000	-0.415194	0.000000	0.000000	-0.000000	0.000000	0.000000	-0.000000	0.000000	0.562925	0.000000	0.000000	0.000000	0.000000	
3.414583	-44.738481	607.376658	-31.407958	0.965927	0.000000	-0.415095	0.000000	0.000000	0.000000	0.000000	0.000000	-0.000000	0.000000	0.550207	0.000000	0.000000	0.000000	0.000000	
3.415625	-44.253053	606.568445	-31.526955	0.964977	0.000000	-0.414991	-0.000000	0.000000	0.000000	0.000000	0.000000	-0.000000	0.000000	0.537503	0.000000	0.000000	0.000000	0.000000	
3.416667	-43.760965	605.824572	-31.608444	0.964009	0.000000	-0.414883	-0.000000	0.000000	0.000000	0.000000	0.000000	-0.000000	0.000000	0.524988	0.000000	0.000000	0.000000	0.000000	
3.417708	-43.263827	605.144644	-31.653772	0.963025	0.000000	-0.414771	-0.000000	0.000000	0.000000	0.000000	0.000000	-0.000000	0.000000	0.512833	0.000000	0.000000	0.000000	0.000000	
3.418750	-42.763371	604.527706	-31.664865	0.962024	0.000000	-0.414657	-0.000000	0.000000	0.000000	0.000000	0.000000	-0.000000	0.000000	0.501200	0.000000	0.000000	0.000000	0.000000	
3.419792	-42.261401	603.972283	-31.644166	0.961009	0.000000	-0.414542	-0.000000	0.000000	0.000000	0.000000	0.000000	-0.000000	0.000000	0.490245	0.000000	0.000000	0.000000	0.000000	
3.420833	-41.759756	603.476433	-31.594554	0.959980	0.000000	-0.414427	-0.000000	0.000000	0.000000	0.000000	0.000000	-0.000000	0.000000	0.480114	0.000000	0.000000	0.000000	0.000000	
3.421875	-41.260259	603.037806	-31.519254	0.958938	0.000000	-0.414313	-0.000000	0.000000	0.000000	0.000000	0.000000	-0.000000	0.000000	0.470942	0.000000	0.000000	0.000000	0.000000	
3.422917	-40.764677	602.653713	-31.421754	0.957885	0.000000	-0.414200	-0.000000	0.000000	0.000000	0.000000	0.000000	-0.000000	0.000000	0.462856	0.000000	0.000000	0.000000	0.000000	
3.423958	-40.274684	602.321195	-31.305711	0.956822	0.000000	-0.414091	-0.000000	-0.000000	0.000000	-0.000000	-0.000000	0.000000	0.000000	0.455970	0.000000	0.000000	0.000000	0.000000	
3.425000	-39.791821	602.037102	-31.174856	0.955751	0.000000	-0.413986	-0.000000	-0.000000	-0.000000	-0.000000	-0.000000	0.000000	0.000000	0.450389	0.000000	0.000000	0.000000	0.000000	
3.426042	-39.317466	601.798165	-31.032906	0.954673	0.000000	-0.413887	-0.000000	-0.000000	-0.000000	-0.000000	-0.000000	0.000000	0.000000	0.446207	0.000000	0.000000	0.000000	0.000000	
3.427083	-38.852813	601.601071	-30.883479	0.953589	0.000000	-0.413793	0.000000	-0.000000	-0.000000	-0.000000	-0.000000	0.000000	0.000000	0.443505	0.000000	0.000000	0.000000	0.000000	
3.428125	-38.398843	601.442533	-30.730008	0.952502	0.000000	-0.413706	0.000000	-0.000000	-0.000000	-0.000000	-0.000000	0.000000	0.000000	0.442353	0.000000	0.000000	0.000000	0.000000	
3.429167	-37.956319	601.319360	-30.575669	0.951413	0.000000	-0.413626	0.000000	-0.000000	-0.000000	-0.000000	-0.000000	0.000000	0.000000	0.442812	0.000000	0.000000	0.000000	0.000000	
3.430208	-37.525769	601.228513	-30.423314	0.950323	0.000000	-0.413555	0.000000	-0.000000	-0.000000	-0.000000	-0.000000	0.000000	0.000000	0.444931	0.000000	0.000000	0.000000	0.000000	
3.431250	-37.107490	601.167159	-30.275412	0.949233	0.000000	-0.413492	0.000000	-0.000000	-0.000000	-0.000000	-0.000000	0.000000	0.000000	0.448747	0.000000	0.000000	0.000000	0.000000	
3.432292	-36.701544	601.132717	-30.134005	0.948143	0.000000	-0.413437	0.000000	-0.000000	-0.000000	-0.000000	-0.000000	0.000000	0.000000	0.454286	0.000000	0.000000	0.000000	0.000000	
